<?xml version="1.0" standalone="no"?>
<!DOCTYPE svg PUBLIC "-//W3C//DTD SVG 20010904//EN"
 "http://www.w3.org/TR/2001/REC-SVG-20010904/DTD/svg10.dtd">
<svg version="1.0" xmlns="http://www.w3.org/2000/svg"
 width="640.000000pt" height="640.000000pt" viewBox="0 0 640.000000 640.000000"
 preserveAspectRatio="xMidYMid meet">

<g transform="translate(0.000000,640.000000) scale(0.100000,-0.100000)"
fill="#000000" stroke="none">
<path d="M0 3200 l0 -3200 3200 0 3200 0 0 3200 0 3200 -3200 0 -3200 0 0
-3200z m3500 1401 c309 -66 551 -199 760 -417 106 -110 142 -157 215 -279 77
-128 138 -279 173 -429 23 -99 25 -133 26 -316 1 -165 -3 -221 -18 -290 -65
-299 -201 -546 -413 -753 -96 -93 -175 -155 -181 -139 -2 6 -10 8 -18 5 -8 -3
-14 -1 -14 4 0 5 -6 10 -14 10 -8 0 -12 -6 -9 -14 3 -7 1 -13 -5 -13 -5 0 -13
11 -16 25 -4 14 -11 25 -16 25 -6 0 -10 9 -10 20 0 11 -4 20 -10 20 -5 0 -10
-3 -10 -6 0 -12 34 -80 52 -103 18 -23 18 -23 18 -2 0 16 6 21 25 21 14 0 25
-2 25 -5 0 -11 -142 -97 -237 -144 -182 -90 -368 -137 -568 -143 -74 -3 -90 0
-90 12 0 9 -9 14 -22 13 -14 -2 -23 5 -27 20 -8 33 -43 67 -69 67 -17 0 -19
-2 -7 -9 8 -6 17 -8 21 -5 15 9 17 -11 3 -24 -8 -7 -14 -9 -14 -5 0 13 -103 9
-108 -5 -2 -6 -13 -12 -25 -12 -28 0 -19 -6 21 -13 19 -4 32 -2 32 4 0 6 -4 7
-10 4 -5 -3 -10 -2 -10 3 0 6 7 12 15 16 11 4 15 -1 15 -19 0 -20 5 -25 26
-25 14 0 23 4 19 10 -4 6 -10 8 -15 5 -5 -3 -11 -1 -15 5 -7 11 39 25 54 15 8
-4 8 -12 1 -25 -9 -17 -5 -19 47 -23 l58 -3 -61 -2 c-78 -2 -253 33 -380 76
-299 103 -597 348 -774 637 -96 157 -168 353 -195 535 -19 122 -19 338 0 460
30 198 126 438 243 605 121 173 320 351 508 455 142 79 359 149 523 170 110
14 373 4 481 -19z m-398 -2883 c12 -25 -4 -22 -20 2 -7 12 -9 26 -6 32 6 9 9
8 12 -2 3 -8 9 -23 14 -32z"/>
<path d="M3050 4484 c-14 -2 -52 -9 -85 -15 -87 -15 -249 -66 -334 -105 -171
-79 -375 -244 -493 -399 -109 -145 -198 -338 -240 -527 -30 -135 -32 -394 -4
-533 42 -207 131 -411 245 -560 162 -212 322 -319 497 -332 192 -15 359 66
420 203 22 50 25 69 22 124 -12 168 -103 234 -371 270 -86 11 -183 30 -215 42
-172 64 -293 198 -383 425 -8 21 -3 26 59 57 74 37 443 186 460 186 6 0 36 49
67 110 93 181 174 249 393 326 101 35 164 79 214 148 42 58 104 191 127 272
13 46 23 68 32 66 8 -2 49 -24 93 -50 219 -131 372 -352 416 -601 12 -67 17
-75 49 -96 46 -30 139 -127 181 -188 47 -70 105 -201 124 -280 26 -105 38
-269 31 -406 -3 -68 -9 -129 -12 -134 -3 -5 0 -8 8 -5 40 13 131 246 166 423
24 123 24 386 -1 505 -84 410 -343 752 -706 935 -192 97 -352 136 -575 140
-88 2 -171 2 -185 -1z"/>
<path d="M3509 3968 c-26 -64 -127 -204 -175 -244 -57 -48 -104 -73 -211 -113
-190 -71 -207 -86 -294 -267 -58 -121 -60 -123 -107 -140 -79 -29 -427 -166
-431 -170 -9 -9 38 -81 88 -136 37 -40 75 -69 125 -94 66 -32 89 -37 237 -54
249 -29 360 -69 459 -169 77 -76 103 -144 101 -261 0 -47 -7 -110 -15 -140 -9
-30 -13 -56 -10 -59 10 -10 78 35 143 96 239 220 339 529 261 804 -6 20 -28
64 -50 98 -50 77 -27 69 65 -23 116 -117 167 -269 146 -445 -27 -241 -133
-433 -324 -586 -152 -123 -333 -192 -524 -202 -62 -3 -113 -9 -113 -13 0 -10
48 -30 72 -30 17 0 19 -3 10 -12 -14 -14 -16 -38 -3 -38 5 0 12 8 16 19 5 18
15 18 154 13 116 -4 170 -1 243 12 88 17 307 83 318 97 3 3 32 28 64 54 78 63
94 81 171 195 67 100 109 192 146 325 31 107 34 354 6 455 -28 103 -80 199
-156 289 -39 46 -73 93 -76 105 -3 11 -12 60 -20 109 -26 140 -78 274 -153
391 -32 51 -131 166 -142 166 -4 0 -14 -14 -21 -32z m-301 -583 c16 -16 -126
-90 -210 -110 -61 -14 -128 -20 -128 -11 0 17 73 126 88 130 21 6 243 -1 250
-9z"/>
<path d="M3505 2280 c-3 -5 -1 -10 4 -10 6 0 11 5 11 10 0 6 -2 10 -4 10 -3 0
-8 -4 -11 -10z"/>
<path d="M4322 2240 c0 -14 2 -19 5 -12 2 6 2 18 0 25 -3 6 -5 1 -5 -13z"/>
<path d="M3081 2224 c0 -11 3 -14 6 -6 3 7 2 16 -1 19 -3 4 -6 -2 -5 -13z"/>
<path d="M4260 2171 c0 -7 -7 -11 -14 -8 -10 4 -13 1 -9 -9 5 -14 7 -14 21 0
9 9 13 19 9 22 -4 4 -7 2 -7 -5z"/>
<path d="M3580 2160 c-9 -6 -10 -10 -3 -10 6 0 15 5 18 10 8 12 4 12 -15 0z"/>
<path d="M3915 2109 c-11 -17 1 -21 15 -4 8 9 8 15 2 15 -6 0 -14 -5 -17 -11z"/>
<path d="M3280 2090 c0 -5 5 -10 11 -10 5 0 7 5 4 10 -3 6 -8 10 -11 10 -2 0
-4 -4 -4 -10z"/>
<path d="M2990 2076 c0 -2 7 -7 16 -10 8 -3 12 -2 9 4 -6 10 -25 14 -25 6z"/>
<path d="M3985 2060 c-3 -5 -1 -10 4 -10 6 0 11 5 11 10 0 6 -2 10 -4 10 -3 0
-8 -4 -11 -10z"/>
<path d="M4113 2058 c7 -20 -9 -35 -16 -16 -3 7 -6 3 -6 -10 -1 -22 0 -22 25
-6 14 10 22 20 17 23 -4 3 -12 11 -17 16 -6 6 -7 3 -3 -7z"/>
<path d="M3130 2050 c0 -5 5 -10 11 -10 5 0 7 5 4 10 -3 6 -8 10 -11 10 -2 0
-4 -4 -4 -10z"/>
<path d="M2400 2035 c0 -8 4 -15 10 -15 5 0 7 7 4 15 -4 8 -8 15 -10 15 -2 0
-4 -7 -4 -15z"/>
<path d="M3185 2040 c-3 -5 -1 -10 4 -10 6 0 11 5 11 10 0 6 -2 10 -4 10 -3 0
-8 -4 -11 -10z"/>
<path d="M3896 2019 c-11 -11 -15 -19 -9 -19 12 0 38 28 32 34 -2 2 -13 -5
-23 -15z"/>
<path d="M2510 2010 c-8 -5 -10 -10 -5 -10 6 0 17 5 25 10 8 5 11 10 5 10 -5
0 -17 -5 -25 -10z"/>
<path d="M3350 2010 c0 -5 5 -10 11 -10 5 0 7 5 4 10 -3 6 -8 10 -11 10 -2 0
-4 -4 -4 -10z"/>
<path d="M3124 1996 c-19 -15 -19 -15 0 -12 11 2 22 8 24 14 5 16 0 15 -24 -2z"/>
<path d="M2325 1990 c3 -5 8 -10 11 -10 2 0 4 5 4 10 0 6 -5 10 -11 10 -5 0
-7 -4 -4 -10z"/>
<path d="M2555 1990 c3 -5 8 -10 11 -10 2 0 4 5 4 10 0 6 -5 10 -11 10 -5 0
-7 -4 -4 -10z"/>
<path d="M2678 1993 c7 -3 16 -2 19 1 4 3 -2 6 -13 5 -11 0 -14 -3 -6 -6z"/>
<path d="M3325 1990 c3 -5 8 -10 11 -10 2 0 4 5 4 10 0 6 -5 10 -11 10 -5 0
-7 -4 -4 -10z"/>
<path d="M3852 1988 c5 -15 28 -23 28 -10 0 5 -7 13 -16 16 -10 4 -14 1 -12
-6z"/>
<path d="M2367 1984 c-8 -8 3 -34 15 -34 7 0 6 5 -1 13 -6 8 -8 17 -4 20 3 4
4 7 1 7 -2 0 -7 -3 -11 -6z"/>
<path d="M3293 1978 c2 -7 -8 -18 -22 -25 -22 -10 -23 -11 -6 -12 11 0 31 6
45 14 20 11 21 14 7 15 -10 0 -15 5 -12 10 3 6 1 10 -5 10 -7 0 -10 -6 -7 -12z"/>
<path d="M2535 1970 c-3 -5 -1 -10 4 -10 6 0 11 5 11 10 0 6 -2 10 -4 10 -3 0
-8 -4 -11 -10z"/>
<path d="M2670 1959 c0 -5 9 -9 20 -9 11 0 20 2 20 4 0 2 -9 6 -20 9 -11 3
-20 1 -20 -4z"/>
<path d="M3825 1950 c3 -5 8 -10 11 -10 2 0 4 5 4 10 0 6 -5 10 -11 10 -5 0
-7 -4 -4 -10z"/>
<path d="M3896 1951 c-4 -7 -5 -15 -2 -18 9 -9 19 4 14 18 -4 11 -6 11 -12 0z"/>
<path d="M2450 1940 c0 -5 5 -10 10 -10 6 0 10 5 10 10 0 6 -4 10 -10 10 -5 0
-10 -4 -10 -10z"/>
<path d="M3927 1929 c4 -12 0 -25 -8 -30 -20 -13 -29 -11 -29 6 0 15 -21 21
-33 9 -11 -11 4 -33 19 -27 8 3 14 0 14 -6 0 -5 16 -1 35 10 40 24 43 34 16
48 -16 9 -18 8 -14 -10z"/>
<path d="M2481 1919 c-13 -11 -21 -22 -18 -25 3 -3 16 3 28 15 29 27 21 35
-10 10z"/>
<path d="M2546 1925 c-11 -8 -15 -15 -9 -15 6 0 16 7 23 15 16 19 11 19 -14 0z"/>
<path d="M2734 1923 c5 -14 3 -23 -3 -23 -6 0 -11 4 -11 9 0 17 -40 19 -49 2
-13 -24 -10 -90 5 -84 7 3 10 -4 7 -19 -4 -21 1 -26 33 -36 21 -6 40 -9 43 -7
2 3 -1 5 -7 5 -15 0 -15 27 0 36 8 5 9 2 5 -9 -3 -10 -2 -17 3 -17 6 0 10 -6
10 -14 0 -15 45 -30 62 -20 5 4 14 1 18 -6 12 -20 77 -4 83 20 7 29 -7 32 -28
7 -18 -20 -20 -20 -23 -4 -2 10 -10 30 -18 45 l-14 27 0 -40 c-1 -36 -2 -38
-14 -22 -14 18 -15 18 -24 0 -9 -15 -13 -16 -24 -5 -11 11 -10 15 2 22 13 8
12 10 -2 10 -17 0 -23 12 -19 34 1 5 -5 6 -14 2 -10 -4 -18 2 -24 16 l-8 22
-5 -22 c-4 -12 -2 -22 3 -22 5 0 9 -7 9 -16 0 -8 -4 -13 -9 -10 -5 4 -11 3
-14 -1 -2 -5 -2 -2 -1 4 2 7 -4 25 -13 41 -9 16 -14 36 -10 45 7 18 27 23 27
7 0 -5 -4 -10 -10 -10 -5 0 -10 -7 -10 -15 0 -8 5 -15 10 -15 6 0 10 7 10 16
0 10 6 14 14 11 7 -3 19 0 25 6 6 6 11 7 11 1 0 -5 -5 -15 -11 -21 -8 -8 -8
-13 0 -17 6 -4 11 -3 11 3 0 5 2 16 5 23 3 8 -4 25 -16 39 -21 24 -21 24 -15
2z"/>
<path d="M3086 1921 c-3 -5 3 -11 13 -14 14 -3 18 -1 14 9 -6 16 -19 18 -27 5z"/>
<path d="M3820 1910 c0 -5 5 -10 11 -10 5 0 7 5 4 10 -3 6 -8 10 -11 10 -2 0
-4 -4 -4 -10z"/>
<path d="M2870 1896 c0 -6 11 -12 25 -12 32 -2 32 12 0 18 -15 3 -25 1 -25 -6z"/>
<path d="M3681 1886 c-7 -8 -34 -20 -61 -27 -34 -9 -47 -16 -43 -26 7 -19 -17
-63 -34 -63 -8 0 -11 -5 -7 -12 5 -7 3 -8 -5 -4 -7 5 -18 2 -24 -7 -7 -8 -22
-17 -34 -20 -26 -6 -59 15 -49 31 4 7 3 12 -2 12 -17 0 -22 -13 -10 -27 6 -7
8 -17 4 -20 -4 -4 -11 -1 -16 7 -11 18 -22 8 -14 -13 7 -18 26 -17 144 13 41
11 88 22 103 25 25 5 28 9 23 30 -5 18 -2 25 9 25 8 0 15 -8 15 -19 0 -18 2
-18 45 -2 44 15 53 30 25 39 -7 3 -10 0 -6 -7 4 -6 3 -11 -3 -11 -5 0 -13 5
-16 10 -4 6 -11 7 -17 4 -14 -9 -27 14 -21 36 4 15 12 17 39 13 20 -3 34 -1
34 5 0 15 -28 23 -34 9 -5 -9 -7 -9 -12 1 -7 16 -19 15 -33 -2z m-1 -29 c0 -2
-9 -14 -20 -27 -11 -13 -20 -30 -20 -39 -1 -11 -5 -8 -14 8 -10 17 -15 20 -18
10 -3 -8 -1 -22 4 -31 10 -21 5 -22 -24 -7 -21 11 -21 12 -4 25 11 7 16 20 13
29 -5 10 0 15 13 15 10 0 22 5 25 10 6 9 45 15 45 7z m40 -51 c0 -11 -19 -15
-25 -6 -3 5 1 10 9 10 9 0 16 -2 16 -4z"/>
<path d="M3801 1884 c0 -11 3 -14 6 -6 3 7 2 16 -1 19 -3 4 -6 -2 -5 -13z"/>
<path d="M2536 1875 c-3 -8 -1 -15 4 -15 6 0 10 7 10 15 0 8 -2 15 -4 15 -2 0
-6 -7 -10 -15z"/>
<path d="M2620 1881 c-14 -4 -20 -10 -14 -14 6 -3 20 0 30 8 21 16 20 16 -16
6z"/>
<path d="M3767 1865 c-4 -8 -2 -17 3 -20 6 -4 10 3 10 14 0 25 -6 27 -13 6z"/>
<path d="M3840 1871 c0 -5 5 -13 10 -16 6 -3 10 -2 10 4 0 5 -4 13 -10 16 -5
3 -10 2 -10 -4z"/>
<path d="M2785 1860 c3 -5 8 -10 11 -10 2 0 4 5 4 10 0 6 -5 10 -11 10 -5 0
-7 -4 -4 -10z"/>
<path d="M2817 1849 c7 -7 15 -10 18 -7 3 3 -2 9 -12 12 -14 6 -15 5 -6 -5z"/>
<path d="M2583 1835 c16 -9 31 -14 35 -11 8 9 0 14 -33 21 l-30 6 28 -16z"/>
<path d="M2630 1839 c0 -5 5 -7 10 -4 6 3 10 8 10 11 0 2 -4 4 -10 4 -5 0 -10
-5 -10 -11z"/>
<path d="M2785 1830 c3 -5 8 -10 11 -10 2 0 4 5 4 10 0 6 -5 10 -11 10 -5 0
-7 -4 -4 -10z"/>
<path d="M3785 1830 c-8 -13 5 -13 25 0 13 8 13 10 -2 10 -9 0 -20 -4 -23 -10z"/>
<path d="M2635 1810 c3 -5 14 -10 23 -10 15 0 15 2 2 10 -20 13 -33 13 -25 0z"/>
<path d="M2890 1795 c0 -15 4 -24 10 -20 6 3 10 12 10 20 0 8 -4 17 -10 20 -6
4 -10 -5 -10 -20z"/>
<path d="M3420 1797 c0 -8 11 -24 25 -37 l24 -23 36 24 c19 13 35 27 35 31 0
12 -33 -4 -51 -23 -18 -20 -33 -14 -43 19 -8 24 -26 30 -26 9z"/>
<path d="M3380 1790 c0 -5 5 -10 10 -10 6 0 10 5 10 10 0 6 -4 10 -10 10 -5 0
-10 -4 -10 -10z"/>
<path d="M2980 1780 c0 -5 5 -10 10 -10 6 0 10 5 10 10 0 6 -4 10 -10 10 -5 0
-10 -4 -10 -10z"/>
<path d="M3460 1780 c0 -5 5 -10 10 -10 6 0 10 5 10 10 0 6 -4 10 -10 10 -5 0
-10 -4 -10 -10z"/>
<path d="M3110 1770 c0 -5 8 -6 18 -3 15 6 15 5 3 -10 -12 -15 -12 -17 3 -11
23 9 20 34 -4 34 -11 0 -20 -4 -20 -10z"/>
<path d="M3260 1764 c0 -12 -7 -15 -24 -12 -23 5 -45 -17 -31 -30 3 -3 5 0 5
6 0 7 7 12 15 12 9 0 12 -6 9 -15 -4 -8 -1 -15 5 -15 6 0 11 7 11 15 0 10 10
15 30 15 l30 0 -20 20 c-24 24 -30 25 -30 4z"/>
<path d="M3345 1761 c-16 -3 -25 -9 -19 -13 13 -9 54 1 54 13 0 5 -1 8 -2 8
-2 -1 -16 -4 -33 -8z"/>
<path d="M3157 1744 c-3 -5 3 -19 13 -32 15 -18 28 -22 72 -21 51 0 157 15
130 18 -7 0 -10 6 -7 11 3 6 1 10 -4 10 -6 0 -11 -4 -11 -10 0 -5 -7 -10 -15
-10 -8 0 -15 5 -15 11 0 5 -5 7 -10 4 -6 -4 -8 -10 -5 -15 3 -5 -19 -9 -50 -9
-47 0 -57 4 -73 26 -10 14 -21 22 -25 17z"/>
</g>
</svg>
