<svg xmlns="http://www.w3.org/2000/svg" viewBox="0 0 640 640" width="640" height="640">
<rect width="100%" height="100%" fill="none"/>
<path d="M297,299 L296,300 L295,300 L294,300 L293,301 L292,302 L291,303 L291,304 L290,305 L290,306 L289,307 L289,308 L288,309 L288,310 L287,311 L286,312 L286,313 L287,314 L288,314 L289,314 L290,314 L291,314 L292,314 L293,314 L294,314 L295,314 L296,314 L297,313 L298,313 L299,313 L300,313 L301,312 L302,312 L303,312 L304,311 L305,311 L306,311 L307,310 L308,310 L309,309 L310,309 L311,309 L312,308 L313,308 L314,307 L315,307 L316,306 L317,305 L318,305 L319,304 L320,303 L321,302 L321,301 L320,300 L319,300 L318,300 L317,300 L316,300 L315,300 L314,300 L313,300 L312,299 L311,299 L310,299 L309,299 L308,299 L307,299 L306,299 L305,299 L304,299 L303,299 L302,299 L301,299 L300,299 L299,299 L298,299 Z M307,176 L306,177 L305,177 L304,177 L303,177 L302,177 L301,177 L300,177 L299,177 L298,178 L297,178 L296,178 L295,178 L294,178 L293,178 L292,179 L291,179 L290,179 L289,179 L288,179 L287,180 L286,180 L285,180 L284,180 L283,181 L282,181 L281,181 L280,181 L279,182 L278,182 L277,182 L276,182 L275,183 L274,183 L273,183 L272,184 L271,184 L270,184 L269,185 L268,185 L267,186 L266,186 L265,186 L264,187 L263,187 L262,188 L261,188 L260,188 L259,189 L258,189 L257,190 L256,190 L255,191 L254,191 L253,192 L252,192 L251,193 L250,193 L249,194 L248,195 L247,195 L246,196 L245,196 L244,197 L243,197 L242,198 L241,198 L240,199 L239,200 L238,200 L237,201 L236,202 L235,203 L234,203 L233,204 L232,205 L231,206 L230,206 L229,207 L228,208 L227,209 L226,209 L225,210 L224,211 L223,212 L222,212 L221,213 L220,214 L219,215 L218,216 L217,217 L216,218 L215,219 L214,220 L213,221 L212,222 L211,223 L210,224 L209,225 L208,226 L208,227 L207,228 L206,229 L205,230 L204,231 L204,232 L203,233 L202,234 L201,235 L200,236 L200,237 L199,238 L199,239 L198,240 L197,241 L196,242 L196,243 L195,244 L194,245 L194,246 L193,247 L193,248 L192,249 L191,250 L191,251 L190,252 L190,253 L189,254 L189,255 L188,256 L188,257 L187,258 L187,259 L186,260 L186,261 L185,262 L185,263 L184,264 L184,265 L183,266 L183,267 L182,268 L182,269 L182,270 L181,271 L181,272 L181,273 L180,274 L180,275 L180,276 L179,277 L179,278 L179,279 L178,280 L178,281 L178,282 L177,283 L177,284 L177,285 L177,286 L176,287 L176,288 L176,289 L176,290 L175,291 L175,292 L175,293 L174,294 L174,295 L174,296 L174,297 L174,298 L174,299 L173,300 L173,301 L173,302 L173,303 L173,304 L173,305 L173,306 L172,307 L172,308 L172,309 L172,310 L172,311 L172,312 L172,313 L172,314 L172,315 L172,316 L172,317 L172,318 L172,319 L172,320 L172,321 L172,322 L172,323 L172,324 L172,325 L172,326 L172,327 L172,328 L172,329 L172,330 L172,331 L172,332 L172,333 L172,334 L172,335 L172,336 L172,337 L172,338 L172,339 L173,340 L173,341 L173,342 L173,343 L173,344 L173,345 L173,346 L173,347 L174,348 L174,349 L174,350 L174,351 L174,352 L174,353 L175,354 L175,355 L175,356 L175,357 L176,358 L176,359 L176,360 L176,361 L177,362 L177,363 L177,364 L178,365 L178,366 L178,367 L178,368 L179,369 L179,370 L179,371 L180,372 L180,373 L180,374 L181,375 L181,376 L181,377 L182,378 L182,379 L183,380 L183,381 L184,382 L184,383 L184,384 L185,385 L185,386 L186,387 L186,388 L187,389 L187,390 L188,391 L188,392 L189,393 L189,394 L190,395 L190,396 L191,397 L192,398 L192,399 L193,400 L193,401 L194,402 L194,403 L195,404 L196,405 L196,406 L197,407 L198,408 L198,409 L199,410 L200,411 L201,412 L201,413 L202,414 L203,415 L204,416 L204,417 L205,418 L206,419 L207,420 L208,421 L209,422 L210,423 L210,424 L211,425 L212,426 L213,427 L214,428 L215,429 L216,430 L217,431 L218,432 L219,433 L220,434 L221,435 L222,436 L223,437 L224,437 L225,438 L226,439 L227,440 L228,441 L229,441 L230,442 L231,443 L232,444 L233,445 L234,445 L235,446 L236,447 L237,447 L238,448 L239,449 L240,449 L241,450 L242,451 L243,451 L244,452 L245,453 L246,453 L247,454 L248,454 L249,455 L250,455 L251,456 L252,456 L253,457 L254,458 L255,458 L256,458 L257,459 L258,459 L259,460 L260,460 L261,461 L262,461 L263,462 L264,462 L265,462 L266,463 L267,463 L268,464 L269,464 L270,465 L271,465 L272,465 L273,466 L274,466 L275,466 L276,467 L277,467 L278,467 L279,468 L280,468 L281,468 L282,468 L283,469 L284,469 L285,469 L286,469 L287,469 L288,470 L289,470 L290,470 L291,470 L292,470 L293,470 L294,471 L295,471 L296,471 L297,471 L298,471 L299,471 L300,472 L301,472 L302,472 L303,472 L304,472 L305,473 L306,473 L307,473 L308,473 L309,473 L310,473 L311,473 L312,473 L313,473 L314,473 L315,473 L316,473 L317,473 L318,473 L319,473 L320,473 L321,473 L322,473 L323,473 L324,473 L325,473 L326,473 L327,473 L328,473 L329,473 L330,473 L331,472 L332,472 L333,472 L334,472 L335,472 L336,472 L337,472 L338,472 L339,472 L340,471 L341,471 L342,471 L343,471 L344,471 L345,471 L346,470 L347,470 L348,470 L349,470 L350,470 L351,469 L352,469 L353,469 L354,469 L355,469 L356,468 L357,468 L358,468 L359,467 L360,467 L361,467 L362,467 L363,466 L364,466 L365,466 L366,465 L367,465 L368,465 L369,464 L370,464 L371,464 L372,463 L373,463 L374,462 L375,462 L376,461 L377,461 L378,461 L379,460 L380,460 L381,459 L382,459 L383,458 L384,458 L385,457 L386,457 L387,456 L388,455 L389,455 L390,454 L391,454 L392,453 L393,453 L394,452 L395,452 L396,451 L397,450 L398,450 L399,449 L400,449 L401,448 L402,447 L403,446 L404,446 L405,445 L406,444 L407,443 L408,443 L409,442 L410,441 L411,441 L412,440 L413,439 L414,438 L415,437 L416,436 L417,436 L418,435 L419,434 L420,433 L421,432 L422,431 L423,430 L424,429 L425,428 L426,427 L427,426 L428,425 L429,424 L430,423 L431,422 L432,421 L433,420 L434,419 L434,418 L435,417 L436,416 L437,415 L438,414 L438,413 L439,412 L440,411 L440,410 L441,409 L442,408 L442,407 L443,406 L444,405 L445,404 L445,403 L446,402 L447,401 L447,400 L448,399 L448,398 L449,397 L449,396 L450,395 L451,394 L451,393 L452,392 L452,391 L453,390 L453,389 L454,388 L455,387 L455,386 L455,385 L456,384 L456,383 L457,382 L457,381 L457,380 L458,379 L458,378 L459,377 L459,376 L459,375 L460,374 L460,373 L460,372 L461,371 L461,370 L461,369 L462,368 L462,367 L462,366 L463,365 L463,364 L463,363 L464,362 L464,361 L464,360 L464,359 L465,358 L465,357 L465,356 L465,355 L465,354 L466,353 L466,352 L466,351 L466,350 L466,349 L466,348 L467,347 L467,346 L467,345 L467,344 L467,343 L467,342 L467,341 L467,340 L467,339 L468,338 L468,337 L468,336 L468,335 L468,334 L468,333 L468,332 L468,331 L468,330 L468,329 L468,328 L468,327 L468,326 L468,325 L468,324 L468,323 L468,322 L468,321 L468,320 L468,319 L468,318 L468,317 L468,316 L468,315 L468,314 L468,313 L468,312 L467,311 L467,310 L467,309 L467,308 L467,307 L467,306 L467,305 L467,304 L467,303 L467,302 L467,301 L466,300 L466,299 L466,298 L466,297 L466,296 L466,295 L465,294 L465,293 L465,292 L465,291 L465,290 L464,289 L464,288 L464,287 L463,286 L463,285 L463,284 L462,283 L462,282 L462,281 L461,280 L461,279 L461,278 L460,277 L460,276 L460,275 L459,274 L459,273 L459,272 L458,271 L458,270 L458,269 L457,268 L457,267 L456,266 L456,265 L456,264 L455,263 L455,262 L454,261 L454,260 L453,259 L453,258 L452,257 L452,256 L451,255 L451,254 L450,253 L449,252 L449,251 L448,250 L448,249 L447,248 L447,247 L446,246 L445,245 L445,244 L444,243 L443,242 L443,241 L442,240 L441,239 L441,238 L440,237 L439,236 L439,235 L438,234 L437,233 L436,232 L436,231 L435,230 L434,229 L433,228 L432,227 L431,226 L430,225 L429,224 L429,223 L428,222 L427,221 L426,220 L425,219 L424,218 L423,217 L422,216 L421,215 L420,214 L419,213 L418,212 L417,212 L416,211 L415,210 L414,209 L413,208 L412,207 L411,206 L410,206 L409,205 L408,205 L407,204 L406,203 L405,202 L404,202 L403,201 L402,200 L401,200 L400,199 L399,198 L398,198 L397,197 L396,197 L395,196 L394,195 L393,195 L392,194 L391,194 L390,193 L389,193 L388,192 L387,191 L386,191 L385,191 L384,190 L383,190 L382,189 L381,189 L380,188 L379,188 L378,187 L377,187 L376,187 L375,186 L374,186 L373,186 L372,185 L371,185 L370,184 L369,184 L368,184 L367,183 L366,183 L365,183 L364,183 L363,182 L362,182 L361,182 L360,181 L359,181 L358,181 L357,180 L356,180 L355,180 L354,180 L353,180 L352,179 L351,179 L350,179 L349,179 L348,178 L347,178 L346,178 L345,178 L344,178 L343,178 L342,178 L341,177 L340,177 L339,177 L338,177 L337,177 L336,177 L335,177 L334,177 L333,176 L332,176 L331,176 L330,176 L329,176 L328,176 L327,176 L326,176 L325,176 L324,176 L323,176 L322,176 L321,176 L320,176 L319,176 L318,176 L317,176 L316,176 L315,176 L314,176 L313,176 L312,176 L311,176 L310,176 L309,176 L308,176 Z M352,242 L353,241 L354,242 L355,243 L356,244 L357,245 L358,246 L359,247 L360,248 L361,249 L362,250 L362,251 L363,252 L364,253 L365,254 L365,255 L366,256 L367,257 L367,258 L368,259 L369,260 L369,261 L370,262 L370,263 L371,264 L371,265 L372,266 L372,267 L373,268 L373,269 L374,270 L374,271 L375,272 L375,273 L376,274 L376,275 L376,276 L377,277 L377,278 L378,279 L378,280 L378,281 L379,282 L379,283 L379,284 L379,285 L380,286 L380,287 L380,288 L380,289 L381,290 L381,291 L381,292 L381,293 L381,294 L381,295 L382,296 L382,297 L382,298 L382,299 L382,300 L382,301 L382,302 L383,303 L383,304 L383,305 L383,306 L383,307 L384,308 L384,309 L385,310 L386,311 L387,312 L388,313 L388,314 L389,315 L390,316 L391,317 L392,318 L393,319 L394,320 L394,321 L395,322 L396,323 L397,324 L397,325 L398,326 L399,327 L400,328 L400,329 L401,330 L401,331 L402,332 L402,333 L403,334 L403,335 L404,336 L404,337 L404,338 L405,339 L405,340 L405,341 L406,342 L406,343 L406,344 L407,345 L407,346 L407,347 L407,348 L408,349 L408,350 L408,351 L408,352 L408,353 L408,354 L408,355 L408,356 L409,357 L409,358 L409,359 L409,360 L409,361 L409,362 L409,363 L409,364 L409,365 L409,366 L409,367 L409,368 L409,369 L409,370 L409,371 L409,372 L409,373 L409,374 L409,375 L409,376 L408,377 L408,378 L408,379 L408,380 L408,381 L408,382 L408,383 L408,384 L407,385 L407,386 L407,387 L407,388 L407,389 L406,390 L406,391 L406,392 L406,393 L405,394 L405,395 L405,396 L404,397 L404,398 L404,399 L404,400 L403,401 L403,402 L402,403 L402,404 L401,405 L401,406 L401,407 L400,408 L400,409 L399,410 L399,411 L398,412 L398,413 L397,414 L397,415 L396,416 L395,417 L395,418 L394,419 L394,420 L393,421 L392,422 L392,423 L391,424 L390,425 L390,426 L389,427 L388,428 L387,429 L386,430 L385,431 L384,432 L384,433 L383,434 L382,435 L381,436 L380,437 L379,438 L378,439 L377,440 L376,441 L375,441 L374,442 L373,443 L372,444 L371,445 L370,446 L369,446 L368,447 L367,447 L366,448 L365,448 L364,449 L363,449 L362,450 L361,450 L360,451 L359,451 L358,451 L357,452 L356,452 L355,452 L354,453 L353,453 L352,453 L351,454 L350,454 L349,454 L348,454 L347,455 L346,455 L345,455 L344,455 L343,456 L342,456 L341,456 L340,456 L339,456 L338,457 L337,457 L336,457 L335,457 L334,458 L333,458 L332,458 L331,458 L330,458 L329,458 L328,458 L327,458 L326,458 L325,459 L324,459 L323,459 L322,459 L321,459 L320,459 L319,459 L318,459 L317,459 L316,459 L315,459 L314,459 L313,459 L312,459 L311,459 L310,458 L309,457 L308,456 L309,455 L310,454 L311,453 L312,453 L313,452 L314,452 L315,452 L316,452 L317,451 L318,451 L319,451 L320,451 L321,450 L322,450 L323,450 L324,449 L325,449 L326,449 L327,448 L328,448 L329,448 L330,447 L331,447 L332,446 L333,446 L334,445 L335,445 L336,444 L337,444 L338,443 L339,443 L340,442 L341,441 L342,441 L343,440 L344,439 L345,439 L346,438 L347,438 L348,437 L349,436 L350,435 L351,435 L352,434 L353,433 L354,433 L355,432 L356,431 L357,430 L358,429 L359,428 L359,427 L360,426 L361,425 L362,424 L363,423 L364,422 L365,421 L366,420 L367,419 L367,418 L368,417 L369,416 L370,415 L370,414 L371,413 L372,412 L372,411 L373,410 L374,409 L374,408 L374,407 L375,406 L375,405 L376,404 L376,403 L377,402 L377,401 L378,400 L378,399 L378,398 L379,397 L379,396 L380,395 L380,394 L380,393 L381,392 L381,391 L381,390 L382,389 L382,388 L382,387 L382,386 L383,385 L383,384 L383,383 L383,382 L383,381 L384,380 L384,379 L384,378 L384,377 L384,376 L384,375 L384,374 L384,373 L385,372 L385,371 L385,370 L384,369 L385,368 L384,367 L385,366 L384,365 L384,364 L385,363 L384,362 L384,361 L384,360 L384,359 L384,358 L384,357 L384,356 L383,355 L383,354 L383,353 L383,352 L382,351 L382,350 L382,349 L381,348 L381,347 L381,346 L380,345 L380,344 L379,343 L379,342 L378,341 L378,340 L377,339 L376,338 L376,337 L375,336 L375,335 L374,334 L373,333 L372,332 L371,331 L370,330 L370,329 L369,328 L368,327 L367,326 L366,326 L365,325 L364,324 L363,324 L362,323 L361,322 L360,322 L359,321 L358,322 L359,323 L360,324 L360,325 L361,326 L362,327 L362,328 L363,329 L364,330 L364,331 L365,332 L365,333 L366,334 L366,335 L366,336 L367,337 L367,338 L368,339 L368,340 L368,341 L369,342 L369,343 L369,344 L369,345 L369,346 L370,347 L370,348 L370,349 L370,350 L370,351 L370,352 L370,353 L370,354 L370,355 L370,356 L370,357 L370,358 L370,359 L370,360 L370,361 L370,362 L370,363 L370,364 L370,365 L370,366 L369,367 L369,368 L369,369 L369,370 L369,371 L368,372 L368,373 L368,374 L368,375 L367,376 L367,377 L366,378 L366,379 L366,380 L365,381 L365,382 L365,383 L364,384 L364,385 L364,386 L363,387 L363,388 L362,389 L362,390 L361,391 L361,392 L360,393 L359,394 L359,395 L358,396 L358,397 L357,398 L356,399 L356,400 L355,401 L354,402 L354,403 L353,404 L352,405 L352,406 L351,407 L350,408 L349,409 L348,410 L347,411 L346,412 L345,413 L344,414 L343,415 L342,416 L341,417 L340,418 L339,419 L338,420 L337,421 L336,422 L335,422 L334,423 L333,424 L332,424 L331,423 L330,422 L329,421 L329,420 L329,419 L329,418 L330,417 L330,416 L330,415 L330,414 L330,413 L330,412 L330,411 L330,410 L330,409 L330,408 L330,407 L330,406 L330,405 L330,404 L330,403 L330,402 L330,401 L330,400 L330,399 L330,398 L330,397 L329,396 L329,395 L329,394 L328,393 L328,392 L327,391 L327,390 L326,389 L326,388 L325,387 L325,386 L324,385 L323,384 L322,383 L322,382 L321,381 L320,380 L319,379 L318,379 L317,378 L316,377 L315,376 L314,376 L313,375 L312,374 L311,374 L310,373 L309,372 L308,372 L307,372 L306,371 L305,370 L304,370 L303,370 L302,369 L301,369 L300,369 L299,368 L298,368 L297,368 L296,367 L295,367 L294,367 L293,367 L292,366 L291,366 L290,366 L289,366 L288,366 L287,365 L286,365 L285,365 L284,365 L283,365 L282,365 L281,365 L280,365 L279,365 L278,364 L277,364 L276,364 L275,364 L274,364 L273,364 L272,364 L271,364 L270,364 L269,364 L268,364 L267,364 L266,363 L265,363 L264,363 L263,363 L262,363 L261,362 L260,362 L259,362 L258,362 L257,361 L256,361 L255,361 L254,360 L253,360 L252,360 L251,359 L250,359 L249,358 L248,358 L247,357 L246,357 L245,356 L244,355 L243,354 L242,354 L241,353 L240,352 L239,351 L239,350 L238,349 L237,348 L236,347 L235,346 L234,345 L233,344 L232,343 L232,342 L231,341 L231,340 L230,339 L230,338 L231,337 L232,336 L233,335 L234,335 L235,334 L236,334 L237,333 L238,333 L239,333 L240,332 L241,332 L242,331 L243,331 L244,330 L245,330 L246,330 L247,329 L248,329 L249,328 L250,328 L251,328 L252,327 L253,327 L254,326 L255,326 L256,326 L257,326 L258,325 L259,325 L260,324 L261,324 L262,323 L263,323 L264,323 L265,322 L266,322 L267,322 L268,321 L269,321 L270,321 L271,320 L272,320 L273,319 L274,319 L275,318 L276,318 L277,317 L277,316 L278,315 L279,314 L279,313 L280,312 L280,311 L281,310 L282,309 L282,308 L282,307 L283,306 L283,305 L283,304 L284,303 L284,302 L285,301 L285,300 L286,299 L286,298 L287,297 L287,296 L287,295 L288,294 L289,293 L290,292 L291,291 L291,290 L292,289 L293,288 L294,287 L295,286 L296,286 L297,285 L298,285 L299,284 L300,283 L301,283 L302,283 L303,282 L304,282 L305,282 L306,281 L307,281 L308,281 L309,280 L310,280 L311,279 L312,279 L313,278 L314,278 L315,278 L316,277 L317,277 L318,277 L319,276 L320,276 L321,275 L322,275 L323,274 L324,274 L325,273 L326,273 L327,272 L328,271 L329,271 L330,270 L331,269 L332,269 L333,268 L334,267 L335,266 L336,265 L337,264 L338,263 L339,262 L340,261 L340,260 L341,259 L342,258 L343,257 L343,256 L344,255 L345,254 L345,253 L346,252 L347,251 L347,250 L348,249 L348,248 L349,247 L349,246 L350,245 L350,244 L351,243 Z M307,192 L308,191 L309,191 L310,191 L311,191 L312,191 L313,191 L314,191 L315,191 L316,191 L317,191 L318,191 L319,191 L320,191 L321,191 L322,191 L323,191 L324,191 L325,191 L326,191 L327,191 L328,191 L329,191 L330,191 L331,191 L332,191 L333,192 L334,192 L335,192 L336,192 L337,192 L338,192 L339,192 L340,192 L341,193 L342,193 L343,193 L344,193 L345,193 L346,193 L347,194 L348,194 L349,194 L350,194 L351,194 L352,195 L353,195 L354,195 L355,196 L356,196 L357,196 L358,197 L359,197 L360,197 L361,198 L362,198 L363,198 L364,199 L365,199 L366,199 L367,200 L368,200 L369,200 L370,201 L371,201 L372,201 L373,202 L374,202 L375,203 L376,203 L377,204 L378,204 L379,205 L380,205 L381,206 L382,206 L383,207 L384,207 L385,208 L386,208 L387,209 L388,210 L389,210 L390,211 L391,212 L392,212 L393,213 L394,213 L395,214 L396,215 L397,215 L398,216 L399,217 L400,218 L401,218 L402,219 L403,220 L404,221 L405,222 L406,222 L407,223 L408,224 L409,225 L410,226 L411,227 L412,228 L413,229 L414,230 L415,231 L416,232 L417,233 L418,234 L419,235 L420,236 L420,237 L421,238 L422,239 L423,240 L424,241 L425,242 L426,243 L426,244 L427,245 L428,246 L429,247 L430,248 L430,249 L431,250 L431,251 L432,252 L433,253 L433,254 L434,255 L434,256 L435,257 L436,258 L436,259 L437,260 L437,261 L438,262 L438,263 L439,264 L439,265 L440,266 L440,267 L441,268 L441,269 L442,270 L442,271 L442,272 L443,273 L443,274 L444,275 L444,276 L444,277 L445,278 L445,279 L445,280 L446,281 L446,282 L446,283 L447,284 L447,285 L448,286 L448,287 L448,288 L449,289 L449,290 L449,291 L449,292 L450,293 L450,294 L450,295 L450,296 L450,297 L451,298 L451,299 L451,300 L451,301 L451,302 L451,303 L452,304 L452,305 L452,306 L452,307 L452,308 L452,309 L452,310 L452,311 L452,312 L452,313 L452,314 L452,315 L453,316 L453,317 L453,318 L453,319 L453,320 L453,321 L453,322 L453,323 L453,324 L453,325 L453,326 L453,327 L453,328 L453,329 L453,330 L453,331 L453,332 L453,333 L452,334 L452,335 L452,336 L452,337 L452,338 L452,339 L452,340 L452,341 L452,342 L452,343 L451,344 L451,345 L451,346 L451,347 L451,348 L451,349 L451,350 L450,351 L450,352 L450,353 L450,354 L450,355 L449,356 L449,357 L449,358 L449,359 L448,360 L448,361 L447,362 L447,363 L447,364 L447,365 L446,366 L446,367 L446,368 L445,369 L445,370 L445,371 L444,372 L444,373 L444,374 L443,375 L443,376 L442,377 L442,378 L442,379 L441,380 L440,381 L439,382 L438,381 L437,380 L436,379 L436,378 L436,377 L436,376 L436,375 L436,374 L436,373 L436,372 L436,371 L436,370 L436,369 L436,368 L436,367 L436,366 L436,365 L436,364 L436,363 L436,362 L436,361 L436,360 L435,359 L435,358 L435,357 L435,356 L435,355 L435,354 L435,353 L435,352 L435,351 L435,350 L435,349 L435,348 L434,347 L434,346 L434,345 L434,344 L434,343 L434,342 L433,341 L433,340 L433,339 L433,338 L433,337 L432,336 L432,335 L432,334 L431,333 L431,332 L431,331 L431,330 L430,329 L430,328 L430,327 L429,326 L429,325 L428,324 L428,323 L427,322 L427,321 L426,320 L426,319 L425,318 L425,317 L424,316 L424,315 L423,314 L423,313 L422,312 L421,311 L421,310 L420,309 L420,308 L419,307 L418,306 L417,305 L417,304 L416,303 L415,302 L414,301 L413,300 L412,299 L412,298 L411,297 L410,296 L409,295 L408,294 L407,293 L406,293 L405,292 L404,291 L403,290 L402,290 L401,289 L400,288 L399,287 L398,286 L398,285 L398,284 L398,283 L397,282 L397,281 L397,280 L397,279 L397,278 L396,277 L396,276 L396,275 L396,274 L395,273 L395,272 L395,271 L395,270 L394,269 L394,268 L394,267 L393,266 L393,265 L393,264 L392,263 L392,262 L391,261 L391,260 L391,259 L390,258 L390,257 L389,256 L388,255 L388,254 L387,253 L387,252 L386,251 L386,250 L385,249 L384,248 L384,247 L383,246 L382,245 L382,244 L381,243 L380,242 L379,241 L378,240 L378,239 L377,238 L376,237 L375,236 L374,235 L373,234 L372,233 L371,232 L370,231 L369,230 L368,229 L367,228 L366,227 L365,226 L364,226 L363,225 L362,224 L361,223 L360,223 L359,222 L358,221 L357,221 L356,220 L355,219 L354,219 L353,218 L352,218 L351,217 L350,216 L349,216 L348,215 L347,215 L346,214 L345,214 L344,215 L344,216 L343,217 L343,218 L343,219 L343,220 L342,221 L342,222 L342,223 L341,224 L341,225 L341,226 L340,227 L340,228 L340,229 L339,230 L339,231 L338,232 L338,233 L337,234 L337,235 L337,236 L336,237 L336,238 L335,239 L335,240 L334,241 L334,242 L333,243 L332,244 L332,245 L331,246 L330,247 L330,248 L329,249 L328,250 L327,251 L327,252 L326,253 L325,254 L324,255 L323,256 L322,257 L321,257 L320,258 L319,259 L318,259 L317,260 L316,260 L315,261 L314,261 L313,262 L312,262 L311,262 L310,263 L309,263 L308,263 L307,264 L306,264 L305,264 L304,265 L303,265 L302,266 L301,266 L300,266 L299,267 L298,267 L297,268 L296,268 L295,268 L294,269 L293,270 L292,270 L291,270 L290,271 L289,272 L288,272 L287,273 L286,274 L285,275 L284,275 L283,276 L282,277 L281,278 L280,279 L279,280 L278,281 L277,282 L277,283 L276,284 L275,285 L274,286 L274,287 L273,288 L272,289 L272,290 L271,291 L271,292 L270,293 L270,294 L269,295 L269,296 L268,297 L268,298 L267,299 L267,300 L266,301 L266,302 L265,303 L265,304 L264,305 L263,306 L262,307 L261,307 L260,308 L259,308 L258,308 L257,309 L256,309 L255,310 L254,310 L253,310 L252,311 L251,311 L250,312 L249,312 L248,312 L247,313 L246,313 L245,313 L244,314 L243,314 L242,315 L241,315 L240,315 L239,316 L238,316 L237,317 L236,317 L235,317 L234,318 L233,318 L232,319 L231,319 L230,320 L229,320 L228,320 L227,321 L226,321 L225,322 L224,322 L223,322 L222,323 L221,323 L220,324 L219,324 L218,324 L217,325 L216,325 L215,326 L214,326 L213,327 L212,328 L211,328 L210,329 L210,330 L210,331 L210,332 L210,333 L211,334 L211,335 L212,336 L212,337 L212,338 L213,339 L213,340 L214,341 L214,342 L215,343 L215,344 L216,345 L217,346 L217,347 L218,348 L218,349 L219,350 L219,351 L220,352 L221,353 L221,354 L222,355 L223,356 L223,357 L224,358 L225,359 L226,360 L227,361 L228,362 L229,363 L230,364 L231,365 L232,366 L233,366 L234,367 L235,368 L236,369 L237,369 L238,370 L239,371 L240,371 L241,372 L242,372 L243,373 L244,373 L245,374 L246,374 L247,374 L248,375 L249,375 L250,376 L251,376 L252,376 L253,377 L254,377 L255,377 L256,377 L257,377 L258,378 L259,378 L260,378 L261,378 L262,378 L263,379 L264,379 L265,379 L266,379 L267,379 L268,379 L269,379 L270,379 L271,379 L272,380 L273,380 L274,380 L275,380 L276,380 L277,380 L278,380 L279,380 L280,380 L281,381 L282,381 L283,381 L284,381 L285,381 L286,381 L287,382 L288,382 L289,383 L290,383 L291,383 L292,384 L293,385 L294,385 L295,386 L296,386 L297,387 L298,388 L299,389 L300,390 L301,391 L302,392 L303,393 L303,394 L304,395 L305,396 L305,397 L306,398 L306,399 L306,400 L307,401 L307,402 L307,403 L307,404 L307,405 L308,406 L308,407 L308,408 L307,409 L307,410 L307,411 L307,412 L307,413 L306,414 L306,415 L306,416 L305,417 L305,418 L304,419 L304,420 L303,421 L302,422 L302,423 L301,424 L300,425 L299,426 L298,427 L297,428 L296,428 L295,429 L294,430 L293,431 L292,431 L291,432 L290,432 L289,433 L288,433 L287,434 L286,434 L285,435 L284,435 L283,435 L282,436 L281,436 L280,436 L279,436 L278,437 L277,437 L276,437 L275,437 L274,437 L273,437 L272,437 L271,437 L270,438 L269,438 L268,438 L267,438 L266,437 L265,437 L264,437 L263,437 L262,437 L261,437 L260,437 L259,437 L258,437 L257,437 L256,436 L255,436 L254,436 L253,436 L252,435 L251,435 L250,435 L249,434 L248,434 L247,434 L246,433 L245,432 L244,432 L243,432 L242,431 L241,430 L240,430 L239,429 L238,428 L237,428 L236,427 L235,426 L234,425 L233,425 L232,424 L231,423 L230,422 L229,421 L228,420 L227,419 L226,418 L225,417 L224,416 L223,415 L222,414 L221,413 L220,412 L219,411 L218,410 L217,409 L217,408 L216,407 L215,406 L214,405 L214,404 L213,403 L212,402 L211,401 L211,400 L210,399 L210,398 L209,397 L208,396 L207,395 L207,394 L206,393 L206,392 L205,391 L205,390 L204,389 L203,388 L203,387 L202,386 L202,385 L201,384 L201,383 L200,382 L200,381 L199,380 L199,379 L198,378 L198,377 L198,376 L197,375 L197,374 L196,373 L196,372 L196,371 L195,370 L195,369 L195,368 L194,367 L194,366 L194,365 L193,364 L193,363 L193,362 L192,361 L192,360 L192,359 L191,358 L191,357 L191,356 L191,355 L190,354 L190,353 L190,352 L190,351 L189,350 L189,349 L189,348 L189,347 L189,346 L189,345 L189,344 L188,343 L188,342 L188,341 L188,340 L188,339 L188,338 L188,337 L188,336 L187,335 L187,334 L187,333 L187,332 L187,331 L187,330 L187,329 L187,328 L187,327 L187,326 L187,325 L187,324 L187,323 L187,322 L187,321 L187,320 L187,319 L187,318 L187,317 L187,316 L187,315 L187,314 L187,313 L187,312 L187,311 L187,310 L188,309 L188,308 L188,307 L188,306 L188,305 L188,304 L188,303 L188,302 L189,301 L189,300 L189,299 L189,298 L189,297 L189,296 L190,295 L190,294 L190,293 L190,292 L191,291 L191,290 L191,289 L192,288 L192,287 L192,286 L193,285 L193,284 L193,283 L194,282 L194,281 L194,280 L195,279 L195,278 L195,277 L196,276 L196,275 L196,274 L197,273 L197,272 L197,271 L198,270 L198,269 L199,268 L199,267 L200,266 L200,265 L201,264 L201,263 L202,262 L203,261 L203,260 L204,259 L204,258 L205,257 L205,256 L206,255 L206,254 L207,253 L208,252 L208,251 L209,250 L210,249 L210,248 L211,247 L212,246 L213,245 L213,244 L214,243 L215,242 L216,241 L216,240 L217,239 L218,238 L219,237 L220,236 L221,235 L222,234 L223,233 L224,232 L225,231 L226,230 L227,229 L228,228 L229,227 L230,226 L231,225 L232,224 L233,223 L234,222 L235,221 L236,221 L237,220 L238,219 L239,218 L240,217 L241,217 L242,216 L243,215 L244,215 L245,214 L246,213 L247,212 L248,212 L249,211 L250,211 L251,210 L252,209 L253,209 L254,208 L255,208 L256,207 L257,207 L258,206 L259,206 L260,205 L261,204 L262,204 L263,203 L264,203 L265,203 L266,202 L267,202 L268,201 L269,201 L270,200 L271,200 L272,200 L273,199 L274,199 L275,199 L276,198 L277,198 L278,198 L279,197 L280,197 L281,197 L282,196 L283,196 L284,196 L285,195 L286,195 L287,195 L288,195 L289,194 L290,194 L291,194 L292,194 L293,193 L294,193 L295,193 L296,193 L297,193 L298,193 L299,193 L300,192 L301,192 L302,192 L303,192 L304,192 L305,192 L306,192 Z M307,119 L306,120 L305,120 L304,120 L303,120 L302,120 L301,120 L300,120 L299,120 L298,120 L297,120 L296,120 L295,120 L294,120 L293,120 L292,120 L291,120 L290,120 L289,121 L288,121 L287,121 L286,121 L285,121 L284,121 L283,121 L282,121 L281,121 L280,122 L279,122 L278,122 L277,122 L276,122 L275,122 L274,122 L273,122 L272,122 L271,123 L270,123 L269,123 L268,123 L267,123 L266,124 L265,124 L264,124 L263,124 L262,124 L261,124 L260,125 L259,125 L258,125 L257,125 L256,125 L255,126 L254,126 L253,126 L252,126 L251,126 L250,127 L249,127 L248,127 L247,127 L246,127 L245,128 L244,128 L243,128 L242,128 L241,128 L240,129 L239,129 L238,130 L237,130 L236,130 L235,130 L234,131 L233,131 L232,131 L231,132 L230,132 L229,132 L228,132 L227,133 L226,133 L225,133 L224,134 L223,134 L222,134 L221,135 L220,135 L219,135 L218,136 L217,136 L216,136 L215,137 L214,137 L213,137 L212,138 L211,138 L210,138 L209,139 L208,139 L207,140 L206,140 L205,140 L204,141 L203,141 L202,142 L201,142 L200,142 L199,143 L198,143 L197,144 L196,144 L195,145 L194,145 L193,146 L192,146 L191,147 L190,147 L189,147 L188,148 L187,148 L186,149 L185,149 L184,150 L183,150 L182,151 L181,151 L180,152 L179,152 L178,153 L177,153 L176,154 L175,155 L174,155 L173,156 L172,156 L171,157 L170,157 L169,158 L168,158 L167,159 L166,159 L165,160 L164,161 L163,161 L162,162 L161,162 L160,163 L159,164 L158,164 L157,165 L156,166 L155,166 L154,167 L153,167 L152,168 L151,169 L150,169 L149,170 L148,171 L147,171 L146,172 L145,173 L144,173 L143,174 L142,175 L141,176 L140,176 L139,177 L138,178 L137,178 L136,179 L135,180 L134,180 L133,181 L132,182 L131,183 L130,184 L129,184 L128,185 L127,186 L126,186 L125,187 L124,188 L123,189 L122,189 L121,190 L120,191 L119,192 L118,193 L117,194 L116,195 L115,195 L114,196 L113,197 L112,198 L111,198 L110,199 L109,200 L108,201 L107,202 L106,203 L105,204 L104,205 L103,206 L102,207 L101,207 L100,208 L99,209 L98,210 L97,211 L96,212 L95,213 L94,214 L93,215 L92,216 L91,217 L90,218 L89,219 L88,220 L87,221 L86,222 L85,223 L84,224 L84,225 L83,226 L82,227 L81,228 L80,229 L79,230 L78,231 L77,232 L76,233 L75,234 L74,235 L73,236 L72,237 L71,238 L70,239 L69,240 L68,241 L68,242 L67,243 L66,244 L65,245 L64,246 L63,247 L62,248 L62,249 L61,250 L60,251 L59,252 L58,253 L57,254 L56,255 L55,256 L55,257 L54,258 L53,259 L52,260 L51,261 L50,262 L49,263 L48,264 L48,265 L47,266 L46,267 L45,268 L45,269 L44,270 L43,271 L42,272 L42,273 L41,274 L40,275 L39,276 L39,277 L38,278 L37,279 L36,280 L36,281 L35,282 L34,283 L33,284 L32,285 L32,286 L31,287 L30,288 L30,289 L29,290 L28,291 L27,292 L27,293 L26,294 L25,295 L24,296 L24,297 L23,298 L22,299 L22,300 L21,301 L20,302 L20,303 L19,304 L19,305 L18,306 L17,307 L17,308 L16,309 L15,310 L15,311 L14,312 L14,313 L13,314 L12,315 L12,316 L11,317 L10,318 L9,319 L9,320 L9,321 L9,322 L9,323 L10,324 L10,325 L11,326 L12,327 L12,328 L13,329 L14,330 L14,331 L15,332 L15,333 L16,334 L16,335 L17,336 L18,337 L19,338 L19,339 L20,340 L21,341 L22,342 L22,343 L23,344 L23,345 L24,346 L25,347 L26,348 L26,349 L27,350 L28,351 L28,352 L29,353 L30,354 L30,355 L31,356 L32,357 L33,358 L33,359 L34,360 L35,361 L35,362 L36,363 L37,364 L38,365 L38,366 L39,367 L40,368 L41,369 L41,370 L42,371 L43,372 L44,373 L45,374 L45,375 L46,376 L47,377 L47,378 L48,379 L49,380 L50,381 L51,382 L51,383 L52,384 L52,385 L53,386 L54,387 L55,388 L56,389 L57,390 L58,391 L58,392 L59,393 L60,394 L61,395 L62,396 L63,397 L64,398 L65,399 L66,400 L67,401 L67,402 L68,403 L69,404 L70,405 L71,406 L71,407 L72,408 L73,409 L74,410 L75,411 L76,412 L77,413 L78,414 L78,415 L79,416 L80,417 L81,418 L82,419 L83,419 L84,420 L85,421 L86,422 L86,423 L87,424 L88,425 L89,426 L90,427 L91,428 L92,429 L93,429 L94,430 L95,431 L96,432 L97,433 L98,434 L99,435 L100,436 L101,437 L102,438 L103,439 L104,439 L105,440 L106,441 L107,442 L108,443 L109,444 L110,445 L111,446 L112,447 L113,447 L114,448 L115,449 L116,450 L117,450 L118,451 L119,452 L120,453 L121,454 L122,455 L123,455 L124,456 L125,457 L126,458 L127,458 L128,459 L129,459 L130,460 L131,461 L132,462 L133,463 L134,464 L135,464 L136,465 L137,465 L138,466 L139,467 L140,468 L141,469 L142,469 L143,470 L144,471 L145,471 L146,472 L147,472 L148,473 L149,474 L150,474 L151,475 L152,476 L153,476 L154,477 L155,478 L156,478 L157,479 L158,479 L159,480 L160,481 L161,481 L162,482 L163,482 L164,483 L165,484 L166,484 L167,485 L168,485 L169,486 L170,487 L171,487 L172,488 L173,489 L174,489 L175,489 L176,490 L177,490 L178,491 L179,491 L180,492 L181,492 L182,493 L183,493 L184,494 L185,494 L186,495 L187,496 L188,496 L189,497 L190,497 L191,498 L192,498 L193,499 L194,499 L195,499 L196,500 L197,500 L198,501 L199,501 L200,501 L201,502 L202,502 L203,503 L204,503 L205,504 L206,504 L207,504 L208,505 L209,505 L210,505 L211,506 L212,506 L213,507 L214,507 L215,507 L216,508 L217,508 L218,508 L219,509 L220,509 L221,510 L222,510 L223,510 L224,511 L225,511 L226,511 L227,511 L228,512 L229,512 L230,513 L231,513 L232,513 L233,513 L234,514 L235,514 L236,514 L237,515 L238,515 L239,515 L240,515 L241,516 L242,516 L243,516 L244,516 L245,517 L246,517 L247,517 L248,517 L249,518 L250,518 L251,518 L252,518 L253,518 L254,518 L255,519 L256,519 L257,519 L258,520 L259,520 L260,520 L261,520 L262,520 L263,520 L264,521 L265,521 L266,521 L267,521 L268,521 L269,522 L270,522 L271,522 L272,522 L273,522 L274,523 L275,523 L276,523 L277,523 L278,523 L279,523 L280,524 L281,524 L282,524 L283,524 L284,524 L285,524 L286,524 L287,525 L288,525 L289,525 L290,525 L291,525 L292,525 L293,525 L294,525 L295,525 L296,525 L297,525 L298,525 L299,525 L300,526 L301,526 L302,526 L303,526 L304,526 L305,526 L306,526 L307,526 L308,526 L309,526 L310,526 L311,526 L312,526 L313,526 L314,526 L315,526 L316,526 L317,526 L318,526 L319,526 L320,526 L321,526 L322,526 L323,526 L324,526 L325,526 L326,526 L327,526 L328,526 L329,526 L330,526 L331,526 L332,526 L333,526 L334,526 L335,526 L336,526 L337,526 L338,526 L339,526 L340,526 L341,525 L342,525 L343,525 L344,525 L345,525 L346,525 L347,525 L348,525 L349,525 L350,525 L351,525 L352,524 L353,524 L354,524 L355,524 L356,524 L357,524 L358,524 L359,524 L360,524 L361,523 L362,523 L363,523 L364,523 L365,523 L366,523 L367,522 L368,522 L369,522 L370,522 L371,522 L372,522 L373,521 L374,521 L375,521 L376,521 L377,521 L378,520 L379,520 L380,520 L381,520 L382,520 L383,519 L384,519 L385,519 L386,519 L387,519 L388,518 L389,518 L390,518 L391,518 L392,517 L393,517 L394,517 L395,516 L396,516 L397,516 L398,516 L399,515 L400,515 L401,515 L402,515 L403,515 L404,514 L405,514 L406,513 L407,513 L408,513 L409,513 L410,512 L411,512 L412,512 L413,511 L414,511 L415,511 L416,510 L417,510 L418,510 L419,509 L420,509 L421,508 L422,508 L423,508 L424,508 L425,507 L426,507 L427,506 L428,506 L429,506 L430,505 L431,505 L432,504 L433,504 L434,504 L435,503 L436,503 L437,502 L438,502 L439,501 L440,501 L441,501 L442,500 L443,500 L444,499 L445,499 L446,499 L447,498 L448,498 L449,497 L450,496 L451,496 L452,495 L453,495 L454,494 L455,494 L456,493 L457,493 L458,492 L459,491 L460,491 L461,491 L462,491 L463,490 L464,490 L465,489 L466,488 L467,488 L468,487 L469,487 L470,486 L471,485 L472,485 L473,484 L474,484 L475,483 L476,482 L477,482 L478,481 L479,481 L480,480 L481,479 L482,479 L483,479 L484,478 L485,477 L486,476 L487,475 L488,475 L489,475 L490,474 L491,473 L492,473 L493,472 L494,471 L495,471 L496,470 L497,469 L498,469 L499,468 L500,467 L501,466 L502,466 L503,465 L504,464 L505,464 L506,463 L507,462 L508,462 L509,461 L510,460 L511,459 L512,459 L513,458 L514,457 L515,456 L516,455 L517,455 L518,454 L519,453 L520,453 L521,452 L522,451 L523,450 L524,449 L525,448 L526,447 L527,447 L528,446 L529,445 L530,444 L531,444 L532,443 L533,442 L534,441 L535,440 L536,439 L537,439 L538,438 L539,437 L540,436 L541,435 L542,434 L543,433 L544,432 L545,431 L546,430 L547,429 L548,428 L549,427 L550,426 L551,425 L552,424 L553,423 L554,422 L555,421 L556,420 L557,419 L558,418 L559,417 L560,416 L561,415 L562,414 L563,413 L564,412 L565,411 L565,410 L566,409 L567,408 L568,407 L569,406 L570,405 L571,404 L572,403 L573,402 L574,401 L575,400 L576,399 L576,398 L577,397 L578,396 L579,395 L580,394 L581,393 L581,392 L582,391 L583,390 L584,389 L585,388 L586,387 L586,386 L587,385 L588,384 L589,383 L589,382 L590,381 L591,380 L592,379 L593,378 L593,377 L594,376 L595,375 L595,374 L596,373 L597,372 L598,371 L599,370 L599,369 L600,368 L601,367 L601,366 L602,365 L603,364 L603,363 L604,362 L605,361 L606,360 L607,359 L607,358 L608,357 L609,356 L609,355 L610,354 L610,353 L611,352 L612,351 L613,350 L614,349 L614,348 L615,347 L616,346 L617,345 L617,344 L618,343 L619,342 L620,341 L620,340 L621,339 L622,338 L623,337 L623,336 L624,335 L625,334 L625,333 L626,332 L627,331 L627,330 L628,329 L629,328 L629,327 L630,326 L630,325 L631,324 L631,323 L631,322 L631,321 L630,320 L630,319 L629,318 L628,317 L628,316 L627,315 L626,314 L626,313 L625,312 L625,311 L624,310 L623,309 L623,308 L622,307 L621,306 L621,305 L620,304 L619,303 L619,302 L618,301 L617,300 L617,299 L616,298 L615,297 L615,296 L614,295 L613,294 L613,293 L612,292 L611,291 L610,290 L610,289 L609,288 L608,287 L607,286 L607,285 L606,284 L605,283 L604,282 L604,281 L603,280 L602,279 L602,278 L601,277 L600,276 L599,275 L599,274 L598,273 L597,272 L596,271 L595,270 L594,269 L594,268 L593,267 L592,266 L591,265 L591,264 L590,263 L589,262 L588,261 L587,260 L586,259 L586,258 L585,257 L584,256 L583,255 L582,254 L581,253 L580,252 L580,251 L579,250 L578,249 L577,248 L576,247 L576,246 L575,245 L574,244 L573,243 L572,242 L571,241 L570,240 L569,239 L568,238 L567,237 L567,236 L566,235 L565,234 L564,233 L563,232 L562,231 L561,230 L560,229 L559,228 L558,227 L557,226 L556,225 L555,224 L554,223 L553,222 L552,221 L551,220 L550,219 L549,218 L548,217 L547,216 L546,215 L545,214 L544,213 L543,212 L542,212 L541,211 L540,210 L539,209 L538,208 L537,207 L536,206 L535,205 L534,204 L533,203 L532,203 L531,202 L530,201 L529,200 L528,199 L527,198 L526,197 L525,196 L524,196 L523,195 L522,194 L521,193 L520,193 L519,192 L518,191 L517,190 L516,189 L515,188 L514,188 L513,187 L512,186 L511,185 L510,185 L509,184 L508,183 L507,182 L506,182 L505,181 L504,180 L503,180 L502,179 L501,178 L500,177 L499,177 L498,176 L497,175 L496,175 L495,174 L494,173 L493,173 L492,172 L491,171 L490,170 L489,170 L488,169 L487,169 L486,168 L485,167 L484,167 L483,166 L482,166 L481,165 L480,164 L479,164 L478,163 L477,162 L476,162 L475,161 L474,161 L473,160 L472,160 L471,159 L470,158 L469,158 L468,157 L467,157 L466,156 L465,156 L464,155 L463,155 L462,154 L461,154 L460,153 L459,152 L458,152 L457,151 L456,151 L455,150 L454,150 L453,150 L452,149 L451,148 L450,148 L449,147 L448,147 L447,147 L446,146 L445,146 L444,145 L443,145 L442,144 L441,144 L440,144 L439,143 L438,143 L437,142 L436,142 L435,141 L434,141 L433,141 L432,140 L431,140 L430,139 L429,139 L428,139 L427,138 L426,138 L425,138 L424,137 L423,137 L422,137 L421,136 L420,136 L419,136 L418,135 L417,135 L416,135 L415,134 L414,134 L413,134 L412,133 L411,133 L410,133 L409,132 L408,132 L407,132 L406,131 L405,131 L404,131 L403,130 L402,130 L401,130 L400,130 L399,129 L398,129 L397,129 L396,129 L395,128 L394,128 L393,128 L392,127 L391,127 L390,127 L389,127 L388,127 L387,126 L386,126 L385,126 L384,126 L383,126 L382,125 L381,125 L380,125 L379,125 L378,125 L377,124 L376,124 L375,124 L374,124 L373,123 L372,123 L371,123 L370,123 L369,123 L368,123 L367,122 L366,122 L365,122 L364,122 L363,122 L362,122 L361,122 L360,122 L359,121 L358,121 L357,121 L356,121 L355,121 L354,121 L353,121 L352,121 L351,121 L350,121 L349,120 L348,120 L347,120 L346,120 L345,120 L344,120 L343,120 L342,120 L341,120 L340,120 L339,120 L338,120 L337,120 L336,120 L335,119 L334,119 L333,119 L332,119 L331,119 L330,119 L329,119 L328,119 L327,119 L326,119 L325,119 L324,119 L323,119 L322,119 L321,119 L320,119 L319,119 L318,119 L317,119 L316,119 L315,119 L314,119 L313,119 L312,119 L311,119 L310,119 L309,119 L308,119 Z M306,142 L307,141 L308,141 L309,141 L310,141 L311,141 L312,141 L313,141 L314,141 L315,141 L316,141 L317,141 L318,141 L319,141 L320,141 L321,141 L322,141 L323,141 L324,141 L325,141 L326,141 L327,141 L328,141 L329,141 L330,141 L331,141 L332,141 L333,141 L334,141 L335,141 L336,142 L337,142 L338,142 L339,142 L340,142 L341,142 L342,142 L343,142 L344,142 L345,142 L346,142 L347,142 L348,142 L349,142 L350,142 L351,143 L352,143 L353,143 L354,143 L355,143 L356,143 L357,143 L358,143 L359,144 L360,144 L361,144 L362,144 L363,144 L364,144 L365,144 L366,145 L367,145 L368,145 L369,145 L370,145 L371,145 L372,145 L373,145 L374,146 L375,146 L376,146 L377,146 L378,147 L379,147 L380,147 L381,147 L382,147 L383,147 L384,148 L385,148 L386,148 L387,149 L388,149 L389,149 L390,149 L391,149 L392,150 L393,150 L394,150 L395,151 L396,151 L397,151 L398,151 L399,152 L400,152 L401,152 L402,153 L403,153 L404,153 L405,153 L406,154 L407,154 L408,155 L409,155 L410,155 L411,156 L412,156 L413,156 L414,157 L415,157 L416,157 L417,158 L418,158 L419,159 L420,159 L421,159 L422,160 L423,160 L424,160 L425,161 L426,161 L427,161 L428,162 L429,162 L430,163 L431,163 L432,163 L433,164 L434,164 L435,165 L436,165 L437,166 L438,166 L439,167 L440,167 L441,168 L442,168 L443,169 L444,169 L445,170 L446,170 L447,171 L448,171 L449,171 L450,172 L451,172 L452,173 L453,174 L454,174 L455,175 L456,175 L457,176 L458,176 L459,177 L460,178 L461,178 L462,179 L463,179 L464,180 L465,180 L466,181 L467,181 L468,182 L469,183 L470,184 L471,184 L472,185 L473,185 L474,186 L475,186 L476,187 L477,188 L478,188 L479,189 L480,190 L481,190 L482,191 L483,191 L484,192 L485,193 L486,193 L487,194 L488,195 L489,196 L490,196 L491,197 L492,198 L493,198 L494,199 L495,200 L496,201 L497,202 L498,202 L499,203 L500,204 L501,205 L502,205 L503,206 L504,207 L505,208 L506,208 L507,209 L508,210 L509,211 L510,212 L511,213 L512,214 L513,214 L514,215 L515,216 L516,217 L517,217 L518,218 L519,219 L520,220 L521,221 L522,222 L523,223 L524,224 L525,225 L526,226 L527,227 L528,228 L529,228 L530,229 L531,230 L532,231 L533,232 L534,233 L535,234 L536,235 L537,236 L538,237 L539,238 L540,239 L541,239 L542,240 L543,241 L544,242 L545,243 L546,244 L547,245 L548,246 L548,247 L549,248 L550,249 L551,250 L552,251 L553,252 L554,253 L555,254 L556,255 L557,256 L558,257 L559,258 L560,259 L560,260 L561,261 L562,262 L563,263 L564,264 L565,265 L566,266 L567,267 L568,268 L568,269 L569,270 L570,271 L571,272 L572,273 L573,274 L574,275 L575,276 L575,277 L576,278 L577,279 L578,280 L578,281 L579,282 L580,283 L581,284 L582,285 L583,286 L583,287 L584,288 L585,289 L586,290 L586,291 L587,292 L588,293 L589,294 L589,295 L590,296 L591,297 L592,298 L593,299 L594,300 L594,301 L595,302 L595,303 L596,304 L597,305 L598,306 L599,307 L600,308 L600,309 L601,310 L601,311 L602,312 L603,313 L603,314 L604,315 L605,316 L605,317 L606,318 L607,319 L608,320 L608,321 L608,322 L608,323 L607,324 L606,325 L606,326 L605,327 L604,328 L604,329 L603,330 L602,331 L601,332 L601,333 L600,334 L599,335 L598,336 L598,337 L597,338 L597,339 L596,340 L595,341 L594,342 L593,343 L593,344 L592,345 L591,346 L591,347 L590,348 L589,349 L588,350 L587,351 L586,352 L586,353 L585,354 L584,355 L584,356 L583,357 L582,358 L581,359 L580,360 L580,361 L579,362 L578,363 L578,364 L577,365 L576,366 L575,367 L574,368 L574,369 L573,370 L572,371 L571,372 L570,373 L569,374 L569,375 L568,376 L567,377 L566,378 L566,379 L565,380 L564,381 L563,382 L562,383 L561,384 L560,385 L560,386 L559,387 L558,388 L557,389 L556,390 L555,391 L554,392 L554,393 L553,394 L552,395 L551,396 L550,397 L549,398 L548,399 L547,400 L546,401 L545,402 L544,403 L543,404 L542,405 L542,406 L541,407 L540,408 L539,409 L538,410 L537,411 L536,411 L535,412 L534,413 L533,414 L532,415 L531,416 L530,417 L529,418 L528,419 L527,420 L526,421 L525,422 L524,423 L523,424 L522,425 L521,426 L520,426 L519,427 L518,428 L517,429 L516,430 L515,431 L514,432 L513,433 L512,433 L511,434 L510,435 L509,436 L508,437 L507,438 L506,438 L505,439 L504,439 L503,440 L502,441 L501,442 L500,443 L499,444 L498,444 L497,445 L496,445 L495,446 L494,447 L493,448 L492,448 L491,449 L490,450 L489,451 L488,451 L487,452 L486,452 L485,453 L484,454 L483,455 L482,455 L481,456 L480,457 L479,457 L478,458 L477,458 L476,459 L475,460 L474,461 L473,461 L472,462 L471,462 L470,463 L469,464 L468,464 L467,465 L466,465 L465,466 L464,467 L463,467 L462,468 L461,468 L460,469 L459,469 L458,470 L457,471 L456,471 L455,472 L454,472 L453,473 L452,474 L451,474 L450,475 L449,475 L448,476 L447,477 L446,477 L445,477 L444,478 L443,479 L442,479 L441,479 L440,480 L439,480 L438,481 L437,481 L436,482 L435,482 L434,482 L433,483 L432,483 L431,484 L430,484 L429,484 L428,485 L427,485 L426,486 L425,486 L424,486 L423,487 L422,487 L421,487 L420,488 L419,489 L418,489 L417,489 L416,490 L415,490 L414,490 L413,490 L412,491 L411,491 L410,491 L409,492 L408,492 L407,492 L406,493 L405,493 L404,493 L403,494 L402,494 L401,494 L400,494 L399,495 L398,495 L397,495 L396,496 L395,496 L394,496 L393,496 L392,497 L391,497 L390,497 L389,497 L388,498 L387,498 L386,498 L385,499 L384,499 L383,499 L382,499 L381,499 L380,499 L379,499 L378,500 L377,500 L376,500 L375,500 L374,501 L373,501 L372,501 L371,501 L370,501 L369,502 L368,502 L367,502 L366,502 L365,502 L364,502 L363,503 L362,503 L361,503 L360,503 L359,503 L358,503 L357,504 L356,504 L355,504 L354,504 L353,504 L352,504 L351,505 L350,505 L349,505 L348,505 L347,505 L346,505 L345,505 L344,505 L343,505 L342,505 L341,505 L340,505 L339,505 L338,505 L337,505 L336,505 L335,506 L334,506 L333,506 L332,506 L331,506 L330,506 L329,506 L328,506 L327,506 L326,506 L325,506 L324,506 L323,506 L322,506 L321,506 L320,506 L319,506 L318,506 L317,506 L316,506 L315,506 L314,506 L313,506 L312,506 L311,506 L310,506 L309,506 L308,506 L307,506 L306,506 L305,506 L304,506 L303,505 L302,505 L301,505 L300,505 L299,505 L298,505 L297,505 L296,505 L295,505 L294,505 L293,505 L292,505 L291,505 L290,505 L289,505 L288,504 L287,504 L286,504 L285,504 L284,504 L283,504 L282,503 L281,503 L280,503 L279,503 L278,503 L277,503 L276,503 L275,503 L274,503 L273,502 L272,502 L271,502 L270,502 L269,502 L268,502 L267,502 L266,501 L265,501 L264,501 L263,500 L262,500 L261,500 L260,500 L259,500 L258,499 L257,499 L256,499 L255,499 L254,499 L253,498 L252,498 L251,498 L250,497 L249,497 L248,497 L247,497 L246,496 L245,496 L244,496 L243,496 L242,495 L241,495 L240,495 L239,494 L238,494 L237,494 L236,494 L235,493 L234,493 L233,492 L232,492 L231,492 L230,492 L229,491 L228,491 L227,491 L226,490 L225,490 L224,489 L223,489 L222,489 L221,489 L220,488 L219,488 L218,487 L217,487 L216,486 L215,486 L214,486 L213,485 L212,485 L211,484 L210,484 L209,483 L208,483 L207,483 L206,482 L205,482 L204,481 L203,481 L202,480 L201,480 L200,480 L199,479 L198,479 L197,478 L196,478 L195,477 L194,477 L193,476 L192,476 L191,475 L190,475 L189,474 L188,474 L187,473 L186,472 L185,472 L184,471 L183,471 L182,470 L181,470 L180,469 L179,469 L178,468 L177,467 L176,467 L175,466 L174,466 L173,465 L172,465 L171,464 L170,463 L169,463 L168,462 L167,462 L166,461 L165,461 L164,460 L163,459 L162,459 L161,458 L160,457 L159,456 L158,456 L157,456 L156,455 L155,454 L154,453 L153,452 L152,452 L151,451 L150,450 L149,450 L148,449 L147,448 L146,447 L145,447 L144,446 L143,445 L142,445 L141,444 L140,443 L139,442 L138,442 L137,441 L136,440 L135,439 L134,438 L133,437 L132,437 L131,436 L130,435 L129,434 L128,433 L127,432 L126,432 L125,431 L124,430 L123,429 L122,428 L121,427 L120,427 L119,426 L118,425 L117,424 L116,423 L115,422 L114,421 L113,420 L112,419 L111,418 L110,417 L109,416 L108,415 L107,414 L106,413 L105,412 L104,411 L103,410 L102,409 L101,408 L100,407 L99,406 L98,405 L97,404 L96,403 L95,402 L94,401 L93,400 L92,399 L91,398 L90,397 L89,396 L88,395 L87,394 L86,393 L85,392 L84,391 L83,390 L82,389 L82,388 L81,387 L80,386 L79,385 L78,384 L77,383 L76,382 L75,381 L74,380 L73,379 L72,378 L72,377 L71,376 L70,375 L70,374 L69,373 L68,372 L67,371 L66,370 L65,369 L65,368 L64,367 L63,366 L62,365 L61,364 L61,363 L60,362 L59,361 L59,360 L58,359 L57,358 L56,357 L55,356 L55,355 L54,354 L53,353 L53,352 L52,351 L51,350 L50,349 L49,348 L49,347 L48,346 L47,345 L47,344 L46,343 L45,342 L44,341 L43,340 L43,339 L42,338 L41,337 L41,336 L40,335 L40,334 L39,333 L38,332 L37,331 L37,330 L36,329 L36,328 L35,327 L34,326 L33,325 L32,324 L32,323 L31,322 L32,321 L32,320 L33,319 L34,318 L34,317 L35,316 L36,315 L37,314 L37,313 L38,312 L39,311 L39,310 L40,309 L41,308 L42,307 L42,306 L43,305 L43,304 L44,303 L45,302 L46,301 L46,300 L47,299 L48,298 L49,297 L49,296 L50,295 L51,294 L52,293 L53,292 L54,291 L54,290 L55,289 L56,288 L57,287 L58,286 L58,285 L59,284 L60,283 L60,282 L61,281 L62,280 L63,279 L64,278 L64,277 L65,276 L66,275 L67,274 L68,273 L69,272 L69,271 L70,270 L71,269 L72,268 L73,267 L74,266 L75,265 L76,264 L77,263 L78,262 L79,261 L80,260 L81,259 L82,258 L82,257 L83,256 L84,255 L85,254 L86,253 L86,252 L87,251 L88,250 L89,249 L90,248 L91,247 L92,246 L93,245 L94,244 L95,243 L96,242 L97,241 L98,240 L99,239 L100,238 L101,237 L102,236 L103,235 L104,234 L105,233 L106,232 L107,231 L108,231 L109,230 L110,229 L111,228 L112,227 L113,226 L114,225 L115,224 L116,223 L117,223 L118,222 L119,221 L120,220 L121,219 L122,218 L123,217 L124,216 L125,216 L126,215 L127,214 L128,213 L129,212 L130,212 L131,211 L132,210 L133,209 L134,208 L135,208 L136,207 L137,206 L138,205 L139,204 L140,204 L141,203 L142,202 L143,202 L144,201 L145,200 L146,199 L147,199 L148,198 L149,197 L150,196 L151,196 L152,195 L153,194 L154,193 L155,193 L156,192 L157,191 L158,191 L159,190 L160,189 L161,189 L162,188 L163,187 L164,187 L165,186 L166,186 L167,185 L168,184 L169,184 L170,183 L171,183 L172,182 L173,182 L174,181 L175,180 L176,180 L177,179 L178,179 L179,178 L180,178 L181,177 L182,176 L183,176 L184,175 L185,175 L186,174 L187,174 L188,173 L189,173 L190,172 L191,172 L192,171 L193,171 L194,170 L195,170 L196,169 L197,169 L198,168 L199,168 L200,168 L201,167 L202,167 L203,166 L204,166 L205,165 L206,165 L207,165 L208,164 L209,164 L210,163 L211,163 L212,163 L213,162 L214,162 L215,161 L216,161 L217,161 L218,160 L219,160 L220,159 L221,159 L222,159 L223,158 L224,158 L225,158 L226,157 L227,157 L228,157 L229,156 L230,156 L231,155 L232,155 L233,155 L234,155 L235,154 L236,154 L237,153 L238,153 L239,153 L240,153 L241,152 L242,152 L243,152 L244,152 L245,151 L246,151 L247,151 L248,151 L249,150 L250,150 L251,150 L252,149 L253,149 L254,149 L255,149 L256,148 L257,148 L258,148 L259,148 L260,148 L261,147 L262,147 L263,147 L264,147 L265,147 L266,146 L267,146 L268,146 L269,146 L270,146 L271,145 L272,145 L273,145 L274,145 L275,145 L276,145 L277,145 L278,144 L279,144 L280,144 L281,144 L282,144 L283,144 L284,144 L285,144 L286,143 L287,143 L288,143 L289,143 L290,143 L291,143 L292,143 L293,143 L294,143 L295,143 L296,143 L297,142 L298,142 L299,142 L300,142 L301,142 L302,142 L303,142 L304,142 L305,142 Z" fill="#0a738f" fill-rule="evenodd" />
</svg>